<svg width="156" height="23" viewBox="0 0 156 23" fill="none" xmlns="http://www.w3.org/2000/svg">
<path d="M7.066 11.999C6.208 11.999 5.49733 11.869 4.934 11.609C4.37933 11.3403 3.985 10.9417 3.751 10.413C3.517 9.88433 3.46933 9.23 3.608 8.45C3.66867 8.086 3.74233 7.696 3.829 7.28C3.92433 6.85533 4.01967 6.45667 4.115 6.084C4.297 5.33 4.61767 4.69733 5.077 4.186C5.545 3.67467 6.117 3.289 6.793 3.029C7.469 2.769 8.223 2.639 9.055 2.639C9.72233 2.639 10.2987 2.717 10.784 2.873C11.278 3.029 11.6767 3.24133 11.98 3.51C12.292 3.77867 12.5087 4.082 12.63 4.42C12.7513 4.74933 12.7817 5.09167 12.721 5.447C12.7037 5.525 12.6603 5.59433 12.591 5.655C12.5303 5.707 12.461 5.733 12.383 5.733H9.991C9.89567 5.733 9.822 5.72 9.77 5.694C9.72667 5.65933 9.692 5.616 9.666 5.564C9.64867 5.47733 9.60533 5.37767 9.536 5.265C9.46667 5.15233 9.35833 5.057 9.211 4.979C9.06367 4.89233 8.85567 4.849 8.587 4.849C8.17967 4.849 7.83733 4.953 7.56 5.161C7.29133 5.369 7.105 5.69833 7.001 6.149C6.91433 6.513 6.82767 6.88133 6.741 7.254C6.663 7.62667 6.58933 8.00367 6.52 8.385C6.43333 8.879 6.48533 9.23867 6.676 9.464C6.87533 9.68067 7.17433 9.789 7.573 9.789C7.85033 9.789 8.10167 9.74567 8.327 9.659C8.55233 9.57233 8.74733 9.438 8.912 9.256C9.07667 9.06533 9.18933 8.82267 9.25 8.528L9.276 8.398H8.353C8.25767 8.398 8.184 8.36333 8.132 8.294C8.08867 8.22467 8.07567 8.14667 8.093 8.06L8.34 6.851C8.35733 6.75567 8.405 6.67767 8.483 6.617C8.56967 6.54767 8.66067 6.513 8.756 6.513H12.175C12.2703 6.513 12.344 6.54767 12.396 6.617C12.448 6.67767 12.4653 6.75567 12.448 6.851L12.11 8.437C11.954 9.19967 11.6377 9.84533 11.161 10.374C10.6843 10.9027 10.095 11.3057 9.393 11.583C8.691 11.8603 7.91533 11.999 7.066 11.999Z" fill="white"/>
<path d="M12.8683 11.869C12.7729 11.869 12.6949 11.8387 12.6343 11.778C12.5823 11.7087 12.5649 11.6263 12.5823 11.531L14.3763 3.107C14.3936 3.01167 14.4413 2.93367 14.5193 2.873C14.6059 2.80367 14.6969 2.769 14.7923 2.769H21.1623C21.2576 2.769 21.3313 2.80367 21.3833 2.873C21.4353 2.93367 21.4526 3.01167 21.4353 3.107L21.1103 4.641C21.0929 4.72767 21.0409 4.80567 20.9543 4.875C20.8763 4.94433 20.7702 4.979 20.6748 4.979H16.7509L16.3913 6.266H20.1223C20.2176 6.266 20.2913 6.30067 20.3433 6.37C20.4039 6.43067 20.4256 6.50867 20.4083 6.604L20.0963 8.008C20.0789 8.10333 20.0269 8.18567 19.9403 8.255C19.8623 8.31567 19.7756 8.346 19.6803 8.346H15.9493L15.6763 9.659H19.7973C19.8926 9.659 19.9663 9.69367 20.0183 9.763C20.0703 9.83233 20.0876 9.91467 20.0703 10.01L19.7453 11.531C19.7279 11.6263 19.6803 11.7087 19.6023 11.778C19.5243 11.8387 19.4376 11.869 19.3423 11.869H12.8683ZM17.0543 2.119C16.9156 2.119 16.8593 2.054 16.8853 1.924C16.8939 1.85467 16.9243 1.794 16.9763 1.742L18.5363 0.247C18.6489 0.143 18.7399 0.0780002 18.8093 0.052C18.8786 0.0173333 18.9653 0 19.0693 0H21.2403C21.3183 0 21.3746 0.026 21.4093 0.0779998C21.4439 0.121333 21.4569 0.177667 21.4483 0.247C21.4396 0.316333 21.4006 0.372667 21.3313 0.416L19.2123 1.911C19.1256 1.97167 19.0389 2.02367 18.9523 2.067C18.8743 2.10167 18.7703 2.119 18.6403 2.119H17.0543Z" fill="white"/>
<path d="M21.3487 11.869C21.2534 11.869 21.1754 11.8387 21.1147 11.778C21.0627 11.7087 21.0454 11.6263 21.0627 11.531L22.8567 3.107C22.8741 3.01167 22.9217 2.93367 22.9997 2.873C23.0864 2.80367 23.1731 2.769 23.2597 2.769H24.9887C25.1447 2.769 25.2487 2.80367 25.3007 2.873C25.3614 2.94233 25.3961 2.99867 25.4047 3.042L27.1987 7.358L28.0957 3.107C28.1131 3.01167 28.1607 2.93367 28.2387 2.873C28.3167 2.80367 28.4034 2.769 28.4987 2.769H30.4617C30.5571 2.769 30.6307 2.80367 30.6827 2.873C30.7347 2.93367 30.7521 3.01167 30.7347 3.107L28.9407 11.531C28.9234 11.6263 28.8757 11.7087 28.7977 11.778C28.7197 11.8387 28.6331 11.869 28.5377 11.869H26.8217C26.6571 11.869 26.5444 11.8343 26.4837 11.765C26.4317 11.687 26.3971 11.6307 26.3797 11.596L24.5597 7.514L23.7017 11.531C23.6844 11.6263 23.6367 11.7087 23.5587 11.778C23.4807 11.8387 23.3941 11.869 23.2987 11.869H21.3487Z" fill="white"/>
<path d="M30.8194 11.869C30.7241 11.869 30.6461 11.8387 30.5854 11.778C30.5334 11.7087 30.5161 11.6263 30.5334 11.531L32.3274 3.107C32.3448 3.01167 32.3924 2.93367 32.4704 2.873C32.5571 2.80367 32.6481 2.769 32.7434 2.769H39.1134C39.2088 2.769 39.2824 2.80367 39.3344 2.873C39.3864 2.93367 39.4038 3.01167 39.3864 3.107L39.0614 4.641C39.0441 4.72767 38.9921 4.80567 38.9054 4.875C38.8274 4.94433 38.7408 4.979 38.6454 4.979H34.6284L34.3424 6.266H38.0734C38.1688 6.266 38.2424 6.30067 38.2944 6.37C38.3551 6.43067 38.3768 6.50867 38.3594 6.604L38.0474 8.008C38.0301 8.10333 37.9781 8.18567 37.8914 8.255C37.8134 8.31567 37.7268 8.346 37.6314 8.346H33.9004L33.6274 9.659H37.7484C37.8438 9.659 37.9174 9.69367 37.9694 9.763C38.0214 9.83233 38.0388 9.91467 38.0214 10.01L37.6964 11.531C37.6791 11.6263 37.6314 11.7087 37.5534 11.778C37.4754 11.8387 37.3888 11.869 37.2934 11.869H30.8194ZM35.0054 2.119C34.8668 2.119 34.8104 2.054 34.8364 1.924C34.8451 1.85467 34.8754 1.794 34.9274 1.742L36.4874 0.247C36.6001 0.143 36.6911 0.0780002 36.7604 0.052C36.8298 0.0173333 36.9164 0 37.0204 0H39.1914C39.2694 0 39.3258 0.026 39.3604 0.0779998C39.3951 0.121333 39.4081 0.177667 39.3994 0.247C39.3908 0.316333 39.3518 0.372667 39.2824 0.416L37.1634 1.911C37.0768 1.97167 36.9901 2.02367 36.9034 2.067C36.8254 2.10167 36.7214 2.119 36.5914 2.119H35.0054Z" fill="white"/>
<path d="M39.4689 11.869C39.3822 11.869 39.3129 11.8387 39.2609 11.778C39.2089 11.7087 39.1916 11.6263 39.2089 11.531L40.9899 3.107C41.0072 3.01167 41.0592 2.93367 41.1459 2.873C41.2326 2.80367 41.3192 2.769 41.4059 2.769H45.1109C46.2896 2.769 47.1562 3.03767 47.7109 3.575C48.2742 4.11233 48.4519 4.862 48.2439 5.824C48.1139 6.43067 47.8626 6.94633 47.4899 7.371C47.1259 7.79567 46.6969 8.12933 46.2029 8.372L47.2299 11.44C47.2386 11.466 47.2429 11.492 47.2429 11.518C47.2516 11.5353 47.2516 11.557 47.2429 11.583C47.2256 11.661 47.1822 11.7303 47.1129 11.791C47.0522 11.843 46.9829 11.869 46.9049 11.869H44.7079C44.5432 11.869 44.4262 11.83 44.3569 11.752C44.2962 11.6653 44.2572 11.5873 44.2399 11.518L43.5119 8.84H42.5759L42.0039 11.531C41.9866 11.6263 41.9346 11.7087 41.8479 11.778C41.7699 11.8387 41.6832 11.869 41.5879 11.869H39.4689ZM43.0309 6.695H44.2659C44.5692 6.695 44.8119 6.61267 44.9939 6.448C45.1846 6.27467 45.3059 6.06233 45.3579 5.811C45.4099 5.551 45.3796 5.33 45.2669 5.148C45.1629 4.966 44.9549 4.875 44.6429 4.875H43.4079L43.0309 6.695Z" fill="white"/>
<path d="M47.6853 11.869C47.59 11.869 47.5206 11.83 47.4773 11.752C47.434 11.6653 47.4383 11.5787 47.4903 11.492L52.2223 3.172C52.2743 3.07667 52.3523 2.98567 52.4563 2.899C52.5603 2.81233 52.6946 2.769 52.8593 2.769H55.3033C55.468 2.769 55.585 2.81233 55.6543 2.899C55.7236 2.98567 55.7626 3.07667 55.7713 3.172L56.9803 11.492C56.9976 11.6047 56.9673 11.6957 56.8893 11.765C56.82 11.8343 56.7376 11.869 56.6423 11.869H54.6923C54.545 11.869 54.441 11.8343 54.3803 11.765C54.3283 11.6957 54.2936 11.6263 54.2763 11.557L54.0943 10.478H50.9743L50.3243 11.57C50.2896 11.6393 50.229 11.7087 50.1423 11.778C50.0643 11.8387 49.9516 11.869 49.8043 11.869H47.6853ZM52.0273 8.281H53.9643L53.6263 5.356L52.0273 8.281Z" fill="white"/>
<path d="M59.1512 11.869C59.0645 11.869 58.9909 11.8387 58.9302 11.778C58.8782 11.7087 58.8609 11.6263 58.8782 11.531L60.2432 5.187H58.0072C57.9119 5.187 57.8339 5.15667 57.7732 5.096C57.7212 5.02667 57.7039 4.94433 57.7212 4.849L58.0982 3.107C58.1155 3.01167 58.1632 2.93367 58.2412 2.873C58.3279 2.80367 58.4145 2.769 58.5012 2.769H65.8072C65.9025 2.769 65.9762 2.80367 66.0282 2.873C66.0889 2.93367 66.1105 3.01167 66.0932 3.107L65.7162 4.849C65.6989 4.94433 65.6512 5.02667 65.5732 5.096C65.4952 5.15667 65.4085 5.187 65.3132 5.187H63.0772L61.7122 11.531C61.6949 11.6263 61.6472 11.7087 61.5692 11.778C61.4912 11.8387 61.4045 11.869 61.3092 11.869H59.1512Z" fill="white"/>
<path d="M65.6043 11.869C65.5176 11.869 65.444 11.8387 65.3833 11.778C65.3313 11.7087 65.314 11.6263 65.3313 11.531L67.1383 3.107C67.1556 3.01167 67.2033 2.93367 67.2813 2.873C67.3593 2.80367 67.446 2.769 67.5413 2.769H69.7383C69.8336 2.769 69.9073 2.80367 69.9593 2.873C70.0113 2.93367 70.0286 3.01167 70.0113 3.107L68.2173 11.531C68.2 11.6263 68.1523 11.7087 68.0743 11.778C67.9963 11.8387 67.9096 11.869 67.8143 11.869H65.6043Z" fill="white"/>
<path d="M73.8687 11.999C73.3054 11.999 72.7811 11.9253 72.2957 11.778C71.8104 11.6307 71.3944 11.4097 71.0477 11.115C70.7011 10.8203 70.4497 10.4563 70.2937 10.023C70.1464 9.581 70.1247 9.06533 70.2287 8.476C70.2894 8.112 70.3587 7.73933 70.4367 7.358C70.5234 6.968 70.6101 6.58233 70.6967 6.201C70.9827 5.057 71.5027 4.17733 72.2567 3.562C73.0194 2.94667 74.0681 2.639 75.4027 2.639C75.9661 2.639 76.4904 2.717 76.9757 2.873C77.4611 3.029 77.8727 3.25867 78.2107 3.562C78.5574 3.85667 78.8087 4.22933 78.9647 4.68C79.1207 5.122 79.1467 5.629 79.0427 6.201C78.9821 6.58233 78.9084 6.968 78.8217 7.358C78.7437 7.73933 78.6571 8.112 78.5617 8.476C78.2671 9.646 77.7427 10.5257 76.9887 11.115C76.2347 11.7043 75.1947 11.999 73.8687 11.999ZM74.1027 9.789C74.4754 9.789 74.8004 9.68067 75.0777 9.464C75.3637 9.23867 75.5631 8.88333 75.6757 8.398C75.7711 8.02533 75.8577 7.66567 75.9357 7.319C76.0137 6.96367 76.0831 6.604 76.1437 6.24C76.2304 5.75467 76.1827 5.40367 76.0007 5.187C75.8274 4.96167 75.5544 4.849 75.1817 4.849C74.8091 4.849 74.4841 4.96167 74.2067 5.187C73.9294 5.40367 73.7257 5.75467 73.5957 6.24C73.5091 6.604 73.4267 6.96367 73.3487 7.319C73.2794 7.66567 73.2101 8.02533 73.1407 8.398C73.0541 8.88333 73.0974 9.23867 73.2707 9.464C73.4441 9.68067 73.7214 9.789 74.1027 9.789Z" fill="white"/>
<path d="M79.544 11.869C79.4487 11.869 79.3707 11.8387 79.31 11.778C79.258 11.7087 79.2407 11.6263 79.258 11.531L81.052 3.107C81.0694 3.01167 81.117 2.93367 81.195 2.873C81.2817 2.80367 81.3684 2.769 81.455 2.769H83.184C83.34 2.769 83.444 2.80367 83.496 2.873C83.5567 2.94233 83.5914 2.99867 83.6 3.042L85.3941 7.358L86.291 3.107C86.3084 3.01167 86.356 2.93367 86.434 2.873C86.512 2.80367 86.5987 2.769 86.694 2.769H88.6571C88.7524 2.769 88.826 2.80367 88.878 2.873C88.93 2.93367 88.9474 3.01167 88.93 3.107L87.136 11.531C87.1187 11.6263 87.071 11.7087 86.993 11.778C86.915 11.8387 86.8284 11.869 86.733 11.869H85.017C84.8524 11.869 84.7397 11.8343 84.679 11.765C84.627 11.687 84.5924 11.6307 84.5751 11.596L82.7551 7.514L81.897 11.531C81.8797 11.6263 81.832 11.7087 81.754 11.778C81.676 11.8387 81.5894 11.869 81.494 11.869H79.544Z" fill="white"/>
<path d="M92.4467 11.999C91.5454 11.999 90.8001 11.8733 90.2107 11.622C89.6301 11.3707 89.2141 11.0413 88.9628 10.634C88.7114 10.218 88.6248 9.776 88.7028 9.308C88.7201 9.23 88.7591 9.165 88.8197 9.113C88.8804 9.061 88.9497 9.035 89.0277 9.035H91.0947C91.2247 9.035 91.3201 9.05667 91.3808 9.1C91.4414 9.13467 91.5021 9.18667 91.5628 9.256C91.6148 9.35133 91.6841 9.44233 91.7708 9.529C91.8661 9.607 91.9874 9.672 92.1348 9.724C92.2908 9.76733 92.4727 9.789 92.6807 9.789C93.0794 9.789 93.4001 9.737 93.6428 9.633C93.8941 9.52033 94.0414 9.36867 94.0847 9.178C94.1194 9.03067 94.0848 8.90933 93.9808 8.814C93.8854 8.71867 93.7034 8.632 93.4348 8.554C93.1748 8.476 92.8194 8.39367 92.3688 8.307C91.7188 8.19433 91.1771 8.01233 90.7438 7.761C90.3191 7.50967 90.0201 7.18467 89.8467 6.786C89.6734 6.37867 89.6474 5.89767 89.7688 5.343C89.9421 4.50233 90.3884 3.84367 91.1077 3.367C91.8271 2.88167 92.7587 2.639 93.9027 2.639C94.4747 2.639 94.9904 2.72133 95.4498 2.886C95.9091 3.05067 96.2948 3.26733 96.6068 3.536C96.9274 3.796 97.1614 4.07767 97.3088 4.381C97.4648 4.68433 97.5168 4.97467 97.4648 5.252C97.4561 5.33 97.4171 5.39933 97.3477 5.46C97.2871 5.512 97.2221 5.538 97.1527 5.538H94.9818C94.8691 5.538 94.7781 5.52067 94.7087 5.486C94.6481 5.45133 94.5917 5.395 94.5397 5.317C94.5224 5.19567 94.4357 5.08733 94.2797 4.992C94.1324 4.89667 93.9331 4.849 93.6817 4.849C93.3871 4.849 93.1444 4.901 92.9538 5.005C92.7718 5.10033 92.6591 5.24333 92.6158 5.434C92.5898 5.564 92.6157 5.67667 92.6937 5.772C92.7717 5.86733 92.9234 5.954 93.1488 6.032C93.3741 6.10133 93.6947 6.17933 94.1107 6.266C94.9167 6.38733 95.5451 6.57367 95.9958 6.825C96.4551 7.07633 96.7584 7.40133 96.9057 7.8C97.0617 8.19 97.0834 8.658 96.9707 9.204C96.7714 10.1227 96.2904 10.8203 95.5277 11.297C94.7737 11.765 93.7467 11.999 92.4467 11.999Z" fill="white"/>
<path d="M107.288 11.999C106.733 11.999 106.213 11.9297 105.728 11.791C105.251 11.6437 104.839 11.427 104.493 11.141C104.155 10.8463 103.916 10.4737 103.778 10.023C103.648 9.57233 103.648 9.03933 103.778 8.424L104.909 3.107C104.926 3.01167 104.974 2.93367 105.052 2.873C105.13 2.80367 105.216 2.769 105.312 2.769H107.418C107.513 2.769 107.587 2.80367 107.639 2.873C107.699 2.93367 107.721 3.01167 107.704 3.107L106.573 8.385C106.477 8.827 106.503 9.16067 106.651 9.386C106.807 9.61133 107.097 9.724 107.522 9.724C107.938 9.724 108.276 9.61133 108.536 9.386C108.804 9.16067 108.986 8.827 109.082 8.385L110.213 3.107C110.23 3.01167 110.278 2.93367 110.356 2.873C110.434 2.80367 110.52 2.769 110.616 2.769H112.735C112.83 2.769 112.904 2.80367 112.956 2.873C113.008 2.93367 113.025 3.01167 113.008 3.107L111.877 8.424C111.617 9.65467 111.118 10.5603 110.382 11.141C109.645 11.713 108.614 11.999 107.288 11.999Z" fill="white"/>
<path d="M113.038 11.869C112.943 11.869 112.865 11.8387 112.804 11.778C112.752 11.7087 112.735 11.6263 112.752 11.531L114.546 3.107C114.564 3.01167 114.611 2.93367 114.689 2.873C114.776 2.80367 114.863 2.769 114.949 2.769H116.678C116.834 2.769 116.938 2.80367 116.99 2.873C117.051 2.94233 117.086 2.99867 117.094 3.042L118.888 7.358L119.785 3.107C119.803 3.01167 119.85 2.93367 119.928 2.873C120.006 2.80367 120.093 2.769 120.188 2.769H122.151C122.247 2.769 122.32 2.80367 122.372 2.873C122.424 2.93367 122.442 3.01167 122.424 3.107L120.63 11.531C120.613 11.6263 120.565 11.7087 120.487 11.778C120.409 11.8387 120.323 11.869 120.227 11.869H118.511C118.347 11.869 118.234 11.8343 118.173 11.765C118.121 11.687 118.087 11.6307 118.069 11.596L116.249 7.514L115.391 11.531C115.374 11.6263 115.326 11.7087 115.248 11.778C115.17 11.8387 115.084 11.869 114.988 11.869H113.038Z" fill="white"/>
<path d="M122.496 11.869C122.409 11.869 122.336 11.8387 122.275 11.778C122.223 11.7087 122.206 11.6263 122.223 11.531L124.03 3.107C124.047 3.01167 124.095 2.93367 124.173 2.873C124.251 2.80367 124.338 2.769 124.433 2.769H126.63C126.725 2.769 126.799 2.80367 126.851 2.873C126.903 2.93367 126.92 3.01167 126.903 3.107L125.109 11.531C125.092 11.6263 125.044 11.7087 124.966 11.778C124.888 11.8387 124.801 11.869 124.706 11.869H122.496Z" fill="white"/>
<path d="M126.99 11.869C126.895 11.869 126.817 11.8387 126.756 11.778C126.704 11.7087 126.687 11.6263 126.704 11.531L128.498 3.107C128.516 3.01167 128.563 2.93367 128.641 2.873C128.728 2.80367 128.819 2.769 128.914 2.769H135.284C135.38 2.769 135.453 2.80367 135.505 2.873C135.557 2.93367 135.575 3.01167 135.557 3.107L135.232 4.641C135.215 4.72767 135.163 4.80567 135.076 4.875C134.998 4.94433 134.912 4.979 134.816 4.979H130.799L130.513 6.266H134.244C134.34 6.266 134.413 6.30067 134.465 6.37C134.526 6.43067 134.548 6.50867 134.53 6.604L134.218 8.008C134.201 8.10333 134.149 8.18567 134.062 8.255C133.984 8.31567 133.898 8.346 133.802 8.346H130.071L129.798 9.659H133.919C134.015 9.659 134.088 9.69367 134.14 9.763C134.192 9.83233 134.21 9.91467 134.192 10.01L133.867 11.531C133.85 11.6263 133.802 11.7087 133.724 11.778C133.646 11.8387 133.56 11.869 133.464 11.869H126.99Z" fill="white"/>
<path d="M138.903 11.999C138.001 11.999 137.256 11.8733 136.667 11.622C136.086 11.3707 135.67 11.0413 135.419 10.634C135.167 10.218 135.081 9.776 135.159 9.308C135.176 9.23 135.215 9.165 135.276 9.113C135.336 9.061 135.406 9.035 135.484 9.035H137.551C137.681 9.035 137.776 9.05667 137.837 9.1C137.897 9.13467 137.958 9.18667 138.019 9.256C138.071 9.35133 138.14 9.44233 138.227 9.529C138.322 9.607 138.443 9.672 138.591 9.724C138.747 9.76733 138.929 9.789 139.137 9.789C139.535 9.789 139.856 9.737 140.099 9.633C140.35 9.52033 140.497 9.36867 140.541 9.178C140.575 9.03067 140.541 8.90933 140.437 8.814C140.341 8.71867 140.159 8.632 139.891 8.554C139.631 8.476 139.275 8.39367 138.825 8.307C138.175 8.19433 137.633 8.01233 137.2 7.761C136.775 7.50967 136.476 7.18467 136.303 6.786C136.129 6.37867 136.103 5.89767 136.225 5.343C136.398 4.50233 136.844 3.84367 137.564 3.367C138.283 2.88167 139.215 2.639 140.359 2.639C140.931 2.639 141.446 2.72133 141.906 2.886C142.365 3.05067 142.751 3.26733 143.063 3.536C143.383 3.796 143.617 4.07767 143.765 4.381C143.921 4.68433 143.973 4.97467 143.921 5.252C143.912 5.33 143.873 5.39933 143.804 5.46C143.743 5.512 143.678 5.538 143.609 5.538H141.438C141.325 5.538 141.234 5.52067 141.165 5.486C141.104 5.45133 141.048 5.395 140.996 5.317C140.978 5.19567 140.892 5.08733 140.736 4.992C140.588 4.89667 140.389 4.849 140.138 4.849C139.843 4.849 139.6 4.901 139.41 5.005C139.228 5.10033 139.115 5.24333 139.072 5.434C139.046 5.564 139.072 5.67667 139.15 5.772C139.228 5.86733 139.379 5.954 139.605 6.032C139.83 6.10133 140.151 6.17933 140.567 6.266C141.373 6.38733 142.001 6.57367 142.452 6.825C142.911 7.07633 143.214 7.40133 143.362 7.8C143.518 8.19 143.539 8.658 143.427 9.204C143.227 10.1227 142.746 10.8203 141.984 11.297C141.23 11.765 140.203 11.999 138.903 11.999Z" fill="white"/>
<path d="M0.27 22.869C0.182 22.869 0.11 22.841 0.054 22.785C0.006 22.721 -0.01 22.645 0.006 22.557L1.662 14.781C1.678 14.693 1.722 14.621 1.794 14.565C1.874 14.501 1.958 14.469 2.046 14.469H5.334C5.83 14.469 6.286 14.529 6.702 14.649C7.118 14.761 7.47 14.937 7.758 15.177C8.046 15.417 8.246 15.717 8.358 16.077C8.478 16.429 8.49 16.845 8.394 17.325C8.186 18.285 7.766 18.989 7.134 19.437C6.51 19.877 5.65 20.097 4.554 20.097H3.21L2.682 22.557C2.666 22.645 2.622 22.721 2.55 22.785C2.478 22.841 2.398 22.869 2.31 22.869H0.27ZM3.57 18.165H4.686C4.91 18.165 5.122 18.097 5.322 17.961C5.522 17.817 5.654 17.597 5.718 17.301C5.758 17.149 5.766 17.005 5.742 16.869C5.726 16.733 5.666 16.625 5.562 16.545C5.466 16.457 5.306 16.413 5.082 16.413H3.954L3.57 18.165Z" fill="white"/>
<path d="M12.0469 22.989C11.5269 22.989 11.0429 22.921 10.5949 22.785C10.1469 22.649 9.76287 22.445 9.44287 22.173C9.12287 21.901 8.89087 21.565 8.74687 21.165C8.61087 20.757 8.59088 20.281 8.68688 19.737C8.74288 19.401 8.80687 19.057 8.87887 18.705C8.95887 18.345 9.03888 17.989 9.11888 17.637C9.38288 16.581 9.86288 15.769 10.5589 15.201C11.2629 14.633 12.2309 14.349 13.4629 14.349C13.9829 14.349 14.4669 14.421 14.9149 14.565C15.3629 14.709 15.7429 14.921 16.0549 15.201C16.3749 15.473 16.6069 15.817 16.7509 16.233C16.8949 16.641 16.9189 17.109 16.8229 17.637C16.7669 17.989 16.6989 18.345 16.6189 18.705C16.5469 19.057 16.4669 19.401 16.3789 19.737C16.1069 20.817 15.6229 21.629 14.9269 22.173C14.2309 22.717 13.2709 22.989 12.0469 22.989ZM12.2629 20.949C12.6069 20.949 12.9069 20.849 13.1629 20.649C13.4269 20.441 13.6109 20.113 13.7149 19.665C13.8029 19.321 13.8829 18.989 13.9549 18.669C14.0269 18.341 14.0909 18.009 14.1469 17.673C14.2269 17.225 14.1829 16.901 14.0149 16.701C13.8549 16.493 13.6029 16.389 13.2589 16.389C12.9149 16.389 12.6149 16.493 12.3589 16.701C12.1029 16.901 11.9149 17.225 11.7949 17.673C11.7149 18.009 11.6389 18.341 11.5669 18.669C11.5029 18.989 11.4389 19.321 11.3749 19.665C11.2949 20.113 11.3349 20.441 11.4949 20.649C11.6549 20.849 11.9109 20.949 12.2629 20.949Z" fill="white"/>
<path d="M20.8016 22.989C20.2896 22.989 19.8096 22.925 19.3616 22.797C18.9216 22.661 18.5416 22.461 18.2216 22.197C17.9096 21.925 17.6896 21.581 17.5616 21.165C17.4416 20.749 17.4416 20.257 17.5616 19.689L18.6056 14.781C18.6216 14.693 18.6656 14.621 18.7376 14.565C18.8096 14.501 18.8896 14.469 18.9776 14.469H20.9216C21.0096 14.469 21.0776 14.501 21.1256 14.565C21.1816 14.621 21.2016 14.693 21.1856 14.781L20.1416 19.653C20.0536 20.061 20.0776 20.369 20.2136 20.577C20.3576 20.785 20.6256 20.889 21.0176 20.889C21.4016 20.889 21.7136 20.785 21.9536 20.577C22.2016 20.369 22.3696 20.061 22.4576 19.653L23.5016 14.781C23.5176 14.693 23.5616 14.621 23.6336 14.565C23.7056 14.501 23.7856 14.469 23.8736 14.469H25.8296C25.9176 14.469 25.9856 14.501 26.0336 14.565C26.0816 14.621 26.0976 14.693 26.0816 14.781L25.0376 19.689C24.7976 20.825 24.3376 21.661 23.6576 22.197C22.9776 22.725 22.0256 22.989 20.8016 22.989Z" fill="white"/>
<path d="M26.2658 22.869C26.1858 22.869 26.1218 22.841 26.0738 22.785C26.0258 22.721 26.0098 22.645 26.0258 22.557L27.6698 14.781C27.6858 14.693 27.7338 14.621 27.8138 14.565C27.8938 14.501 27.9738 14.469 28.0538 14.469H31.4738C32.5618 14.469 33.3618 14.717 33.8738 15.213C34.3938 15.709 34.5578 16.401 34.3658 17.289C34.2458 17.849 34.0138 18.325 33.6698 18.717C33.3338 19.109 32.9378 19.417 32.4818 19.641L33.4298 22.473C33.4378 22.497 33.4418 22.521 33.4418 22.545C33.4498 22.561 33.4498 22.581 33.4418 22.605C33.4258 22.677 33.3858 22.741 33.3218 22.797C33.2658 22.845 33.2018 22.869 33.1298 22.869H31.1018C30.9498 22.869 30.8418 22.833 30.7778 22.761C30.7218 22.681 30.6858 22.609 30.6698 22.545L29.9978 20.073H29.1338L28.6058 22.557C28.5898 22.645 28.5418 22.721 28.4618 22.785C28.3898 22.841 28.3098 22.869 28.2218 22.869H26.2658ZM29.5538 18.093H30.6938C30.9738 18.093 31.1978 18.017 31.3658 17.865C31.5418 17.705 31.6538 17.509 31.7018 17.277C31.7498 17.037 31.7218 16.833 31.6178 16.665C31.5218 16.497 31.3298 16.413 31.0418 16.413H29.9018L29.5538 18.093Z" fill="white"/>
<path d="M37.02 22.869C36.932 22.869 36.86 22.841 36.804 22.785C36.756 22.721 36.74 22.645 36.756 22.557L38.412 14.781C38.428 14.693 38.472 14.621 38.544 14.565C38.624 14.501 38.708 14.469 38.796 14.469H40.392C40.536 14.469 40.636 14.509 40.692 14.589C40.756 14.669 40.792 14.725 40.8 14.757L42.024 18.093L44.652 14.757C44.684 14.725 44.744 14.669 44.832 14.589C44.92 14.509 45.036 14.469 45.18 14.469H46.776C46.864 14.469 46.932 14.501 46.98 14.565C47.028 14.621 47.044 14.693 47.028 14.781L45.372 22.557C45.356 22.645 45.312 22.721 45.24 22.785C45.168 22.841 45.088 22.869 45 22.869H43.188C43.1 22.869 43.032 22.841 42.984 22.785C42.936 22.721 42.92 22.645 42.936 22.557L43.752 18.705L42.3 20.565C42.244 20.629 42.176 20.693 42.096 20.757C42.016 20.821 41.92 20.853 41.808 20.853H41.076C40.964 20.853 40.88 20.821 40.824 20.757C40.776 20.693 40.74 20.629 40.716 20.565L40.02 18.645L39.192 22.557C39.176 22.645 39.132 22.721 39.06 22.785C38.988 22.841 38.908 22.869 38.82 22.869H37.02Z" fill="white"/>
<path d="M46.3776 22.869C46.2896 22.869 46.2256 22.833 46.1856 22.761C46.1456 22.681 46.1496 22.601 46.1976 22.521L50.5656 14.841C50.6136 14.753 50.6856 14.669 50.7816 14.589C50.8776 14.509 51.0016 14.469 51.1536 14.469H53.4096C53.5616 14.469 53.6696 14.509 53.7336 14.589C53.7976 14.669 53.8336 14.753 53.8416 14.841L54.9576 22.521C54.9736 22.625 54.9456 22.709 54.8736 22.773C54.8096 22.837 54.7336 22.869 54.6456 22.869H52.8456C52.7096 22.869 52.6136 22.837 52.5576 22.773C52.5096 22.709 52.4776 22.645 52.4616 22.581L52.2936 21.585H49.4136L48.8136 22.593C48.7816 22.657 48.7256 22.721 48.6456 22.785C48.5736 22.841 48.4696 22.869 48.3336 22.869H46.3776ZM50.3856 19.557H52.1736L51.8616 16.857L50.3856 19.557Z" fill="white"/>
<path d="M56.0041 22.869C55.9241 22.869 55.8561 22.841 55.8001 22.785C55.7521 22.721 55.7361 22.645 55.7521 22.557L57.4201 14.781C57.4361 14.693 57.4801 14.621 57.5521 14.565C57.6241 14.501 57.7041 14.469 57.7921 14.469H59.8201C59.9081 14.469 59.9761 14.501 60.0241 14.565C60.0721 14.621 60.0881 14.693 60.0721 14.781L58.4161 22.557C58.4001 22.645 58.3561 22.721 58.2841 22.785C58.2121 22.841 58.1321 22.869 58.0441 22.869H56.0041Z" fill="white"/>
<path d="M63.3208 22.989C62.4888 22.989 61.8008 22.873 61.2568 22.641C60.7208 22.409 60.3368 22.105 60.1048 21.729C59.8728 21.345 59.7928 20.937 59.8648 20.505C59.8808 20.433 59.9168 20.373 59.9728 20.325C60.0288 20.277 60.0928 20.253 60.1648 20.253H62.0728C62.1928 20.253 62.2808 20.273 62.3368 20.313C62.3928 20.345 62.4488 20.393 62.5048 20.457C62.5528 20.545 62.6168 20.629 62.6968 20.709C62.7848 20.781 62.8968 20.841 63.0328 20.889C63.1768 20.929 63.3448 20.949 63.5368 20.949C63.9048 20.949 64.2008 20.901 64.4248 20.805C64.6568 20.701 64.7928 20.561 64.8328 20.385C64.8648 20.249 64.8328 20.137 64.7368 20.049C64.6488 19.961 64.4808 19.881 64.2328 19.809C63.9928 19.737 63.6648 19.661 63.2488 19.581C62.6488 19.477 62.1488 19.309 61.7488 19.077C61.3568 18.845 61.0808 18.545 60.9208 18.177C60.7608 17.801 60.7368 17.357 60.8488 16.845C61.0088 16.069 61.4208 15.461 62.0848 15.021C62.7488 14.573 63.6088 14.349 64.6648 14.349C65.1928 14.349 65.6688 14.425 66.0928 14.577C66.5168 14.729 66.8728 14.929 67.1608 15.177C67.4568 15.417 67.6728 15.677 67.8088 15.957C67.9528 16.237 68.0008 16.505 67.9528 16.761C67.9448 16.833 67.9088 16.897 67.8448 16.953C67.7888 17.001 67.7288 17.025 67.6648 17.025H65.6608C65.5568 17.025 65.4728 17.009 65.4088 16.977C65.3528 16.945 65.3008 16.893 65.2528 16.821C65.2368 16.709 65.1568 16.609 65.0128 16.521C64.8768 16.433 64.6928 16.389 64.4608 16.389C64.1888 16.389 63.9648 16.437 63.7888 16.533C63.6208 16.621 63.5168 16.753 63.4768 16.929C63.4528 17.049 63.4768 17.153 63.5488 17.241C63.6208 17.329 63.7608 17.409 63.9688 17.481C64.1768 17.545 64.4728 17.617 64.8568 17.697C65.6008 17.809 66.1808 17.981 66.5968 18.213C67.0208 18.445 67.3008 18.745 67.4368 19.113C67.5808 19.473 67.6008 19.905 67.4968 20.409C67.3128 21.257 66.8688 21.901 66.1648 22.341C65.4688 22.773 64.5208 22.989 63.3208 22.989Z" fill="white"/>
<path d="M71.7891 22.989C71.2691 22.989 70.7851 22.921 70.3371 22.785C69.8891 22.649 69.5051 22.445 69.1851 22.173C68.8651 21.901 68.6331 21.565 68.4891 21.165C68.3531 20.757 68.3331 20.281 68.4291 19.737C68.4851 19.401 68.5491 19.057 68.6211 18.705C68.7011 18.345 68.7811 17.989 68.8611 17.637C69.1251 16.581 69.6051 15.769 70.3011 15.201C71.0051 14.633 71.9731 14.349 73.2051 14.349C73.7251 14.349 74.2091 14.421 74.6571 14.565C75.1051 14.709 75.4851 14.921 75.7971 15.201C76.1171 15.473 76.3491 15.817 76.4931 16.233C76.6371 16.641 76.6611 17.109 76.5651 17.637C76.5091 17.989 76.4411 18.345 76.3611 18.705C76.2891 19.057 76.2091 19.401 76.1211 19.737C75.8491 20.817 75.3651 21.629 74.6691 22.173C73.9731 22.717 73.0131 22.989 71.7891 22.989ZM72.0051 20.949C72.3491 20.949 72.6491 20.849 72.9051 20.649C73.1691 20.441 73.3531 20.113 73.4571 19.665C73.5451 19.321 73.6251 18.989 73.6971 18.669C73.7691 18.341 73.8331 18.009 73.8891 17.673C73.9691 17.225 73.9251 16.901 73.7571 16.701C73.5971 16.493 73.3451 16.389 73.0011 16.389C72.6571 16.389 72.3571 16.493 72.1011 16.701C71.8451 16.901 71.6571 17.225 71.5371 17.673C71.4571 18.009 71.3811 18.341 71.3091 18.669C71.2451 18.989 71.1811 19.321 71.1171 19.665C71.0371 20.113 71.0771 20.441 71.2371 20.649C71.3971 20.849 71.6531 20.949 72.0051 20.949Z" fill="white"/>
<path d="M77.0278 22.869C76.9398 22.869 76.8678 22.841 76.8118 22.785C76.7638 22.721 76.7478 22.645 76.7638 22.557L78.4198 14.781C78.4358 14.693 78.4798 14.621 78.5518 14.565C78.6318 14.501 78.7118 14.469 78.7918 14.469H80.3878C80.5318 14.469 80.6278 14.501 80.6758 14.565C80.7318 14.629 80.7638 14.681 80.7718 14.721L82.4278 18.705L83.2558 14.781C83.2718 14.693 83.3158 14.621 83.3878 14.565C83.4598 14.501 83.5398 14.469 83.6278 14.469H85.4398C85.5278 14.469 85.5958 14.501 85.6438 14.565C85.6918 14.621 85.7078 14.693 85.6918 14.781L84.0358 22.557C84.0198 22.645 83.9758 22.721 83.9038 22.785C83.8318 22.841 83.7518 22.869 83.6638 22.869H82.0798C81.9278 22.869 81.8238 22.837 81.7678 22.773C81.7198 22.701 81.6878 22.649 81.6718 22.617L79.9918 18.849L79.1998 22.557C79.1838 22.645 79.1398 22.721 79.0678 22.785C78.9958 22.841 78.9158 22.869 78.8278 22.869H77.0278Z" fill="white"/>
<path d="M88.938 22.989C88.106 22.989 87.418 22.873 86.874 22.641C86.338 22.409 85.954 22.105 85.722 21.729C85.49 21.345 85.41 20.937 85.482 20.505C85.498 20.433 85.534 20.373 85.59 20.325C85.646 20.277 85.71 20.253 85.782 20.253H87.69C87.81 20.253 87.898 20.273 87.954 20.313C88.01 20.345 88.066 20.393 88.122 20.457C88.17 20.545 88.234 20.629 88.314 20.709C88.402 20.781 88.514 20.841 88.65 20.889C88.794 20.929 88.962 20.949 89.154 20.949C89.522 20.949 89.818 20.901 90.042 20.805C90.274 20.701 90.41 20.561 90.45 20.385C90.482 20.249 90.45 20.137 90.354 20.049C90.266 19.961 90.098 19.881 89.85 19.809C89.61 19.737 89.282 19.661 88.866 19.581C88.266 19.477 87.766 19.309 87.366 19.077C86.974 18.845 86.698 18.545 86.538 18.177C86.378 17.801 86.354 17.357 86.466 16.845C86.626 16.069 87.038 15.461 87.702 15.021C88.366 14.573 89.226 14.349 90.282 14.349C90.81 14.349 91.286 14.425 91.71 14.577C92.134 14.729 92.49 14.929 92.778 15.177C93.074 15.417 93.29 15.677 93.426 15.957C93.57 16.237 93.618 16.505 93.57 16.761C93.562 16.833 93.526 16.897 93.462 16.953C93.406 17.001 93.346 17.025 93.282 17.025H91.278C91.174 17.025 91.09 17.009 91.026 16.977C90.97 16.945 90.918 16.893 90.87 16.821C90.854 16.709 90.774 16.609 90.63 16.521C90.494 16.433 90.31 16.389 90.078 16.389C89.806 16.389 89.582 16.437 89.406 16.533C89.238 16.621 89.134 16.753 89.094 16.929C89.07 17.049 89.094 17.153 89.166 17.241C89.238 17.329 89.378 17.409 89.586 17.481C89.794 17.545 90.09 17.617 90.474 17.697C91.218 17.809 91.798 17.981 92.214 18.213C92.638 18.445 92.918 18.745 93.054 19.113C93.198 19.473 93.218 19.905 93.114 20.409C92.93 21.257 92.486 21.901 91.782 22.341C91.086 22.773 90.138 22.989 88.938 22.989Z" fill="white"/>
<path d="M97.4062 22.989C96.6142 22.989 95.9582 22.869 95.4382 22.629C94.9262 22.381 94.5623 22.013 94.3463 21.525C94.1303 21.037 94.0862 20.433 94.2142 19.713C94.2702 19.377 94.3383 19.017 94.4183 18.633C94.5063 18.241 94.5943 17.873 94.6823 17.529C94.8503 16.833 95.1463 16.249 95.5703 15.777C96.0023 15.305 96.5303 14.949 97.1543 14.709C97.7783 14.469 98.4742 14.349 99.2422 14.349C99.8582 14.349 100.39 14.421 100.838 14.565C101.294 14.709 101.662 14.905 101.942 15.153C102.23 15.401 102.43 15.681 102.542 15.993C102.654 16.297 102.682 16.613 102.626 16.941C102.61 17.013 102.57 17.077 102.506 17.133C102.45 17.181 102.386 17.205 102.314 17.205H100.106C100.018 17.205 99.9503 17.193 99.9023 17.169C99.8623 17.137 99.8303 17.097 99.8063 17.049C99.7903 16.969 99.7502 16.877 99.6862 16.773C99.6222 16.669 99.5223 16.581 99.3863 16.509C99.2503 16.429 99.0582 16.389 98.8102 16.389C98.4342 16.389 98.1183 16.485 97.8623 16.677C97.6143 16.869 97.4423 17.173 97.3463 17.589C97.2663 17.925 97.1862 18.265 97.1062 18.609C97.0342 18.953 96.9663 19.301 96.9023 19.653C96.8223 20.109 96.8702 20.441 97.0462 20.649C97.2302 20.849 97.5063 20.949 97.8743 20.949C98.1303 20.949 98.3623 20.909 98.5703 20.829C98.7783 20.749 98.9583 20.625 99.1103 20.457C99.2623 20.281 99.3662 20.057 99.4222 19.785L99.4463 19.665H98.5943C98.5063 19.665 98.4383 19.633 98.3903 19.569C98.3503 19.505 98.3382 19.433 98.3542 19.353L98.5823 18.237C98.5983 18.149 98.6422 18.077 98.7142 18.021C98.7942 17.957 98.8782 17.925 98.9662 17.925H102.122C102.21 17.925 102.278 17.957 102.326 18.021C102.374 18.077 102.39 18.149 102.374 18.237L102.062 19.701C101.918 20.405 101.626 21.001 101.186 21.489C100.746 21.977 100.202 22.349 99.5543 22.605C98.9063 22.861 98.1903 22.989 97.4062 22.989Z" fill="white"/>
<path d="M106.242 22.989C105.722 22.989 105.238 22.921 104.79 22.785C104.342 22.649 103.958 22.445 103.638 22.173C103.318 21.901 103.086 21.565 102.942 21.165C102.806 20.757 102.786 20.281 102.882 19.737C102.938 19.401 103.002 19.057 103.074 18.705C103.154 18.345 103.234 17.989 103.314 17.637C103.578 16.581 104.058 15.769 104.754 15.201C105.458 14.633 106.426 14.349 107.658 14.349C108.178 14.349 108.662 14.421 109.11 14.565C109.558 14.709 109.938 14.921 110.25 15.201C110.57 15.473 110.802 15.817 110.946 16.233C111.09 16.641 111.114 17.109 111.018 17.637C110.962 17.989 110.894 18.345 110.814 18.705C110.742 19.057 110.662 19.401 110.574 19.737C110.302 20.817 109.818 21.629 109.122 22.173C108.426 22.717 107.466 22.989 106.242 22.989ZM106.458 20.949C106.802 20.949 107.102 20.849 107.358 20.649C107.622 20.441 107.806 20.113 107.91 19.665C107.998 19.321 108.078 18.989 108.15 18.669C108.222 18.341 108.286 18.009 108.342 17.673C108.422 17.225 108.378 16.901 108.21 16.701C108.05 16.493 107.798 16.389 107.454 16.389C107.11 16.389 106.81 16.493 106.554 16.701C106.298 16.901 106.11 17.225 105.99 17.673C105.91 18.009 105.834 18.341 105.762 18.669C105.698 18.989 105.634 19.321 105.57 19.665C105.49 20.113 105.53 20.441 105.69 20.649C105.85 20.849 106.106 20.949 106.458 20.949Z" fill="white"/>
<path d="M114.997 22.989C114.485 22.989 114.005 22.925 113.557 22.797C113.117 22.661 112.737 22.461 112.417 22.197C112.105 21.925 111.885 21.581 111.757 21.165C111.637 20.749 111.637 20.257 111.757 19.689L112.801 14.781C112.817 14.693 112.861 14.621 112.933 14.565C113.005 14.501 113.085 14.469 113.173 14.469H115.117C115.205 14.469 115.273 14.501 115.321 14.565C115.377 14.621 115.397 14.693 115.381 14.781L114.337 19.653C114.249 20.061 114.273 20.369 114.409 20.577C114.553 20.785 114.821 20.889 115.213 20.889C115.597 20.889 115.909 20.785 116.149 20.577C116.397 20.369 116.565 20.061 116.653 19.653L117.697 14.781C117.713 14.693 117.757 14.621 117.829 14.565C117.901 14.501 117.981 14.469 118.069 14.469H120.025C120.113 14.469 120.181 14.501 120.229 14.565C120.277 14.621 120.293 14.693 120.277 14.781L119.233 19.689C118.993 20.825 118.533 21.661 117.853 22.197C117.173 22.725 116.221 22.989 114.997 22.989Z" fill="white"/>
<path d="M122.141 22.869C122.061 22.869 121.993 22.841 121.937 22.785C121.889 22.721 121.873 22.645 121.889 22.557L123.149 16.701H121.085C120.997 16.701 120.925 16.673 120.869 16.617C120.821 16.553 120.805 16.477 120.821 16.389L121.169 14.781C121.185 14.693 121.229 14.621 121.301 14.565C121.381 14.501 121.461 14.469 121.541 14.469H128.285C128.373 14.469 128.441 14.501 128.489 14.565C128.545 14.621 128.565 14.693 128.549 14.781L128.201 16.389C128.185 16.477 128.141 16.553 128.069 16.617C127.997 16.673 127.917 16.701 127.829 16.701H125.765L124.505 22.557C124.489 22.645 124.445 22.721 124.373 22.785C124.301 22.841 124.221 22.869 124.133 22.869H122.141Z" fill="white"/>
<path d="M129.946 22.869C129.866 22.869 129.798 22.841 129.742 22.785C129.694 22.721 129.678 22.645 129.694 22.557L130.954 16.701H128.89C128.802 16.701 128.73 16.673 128.674 16.617C128.626 16.553 128.61 16.477 128.626 16.389L128.974 14.781C128.99 14.693 129.034 14.621 129.106 14.565C129.186 14.501 129.266 14.469 129.346 14.469H136.09C136.178 14.469 136.246 14.501 136.294 14.565C136.35 14.621 136.37 14.693 136.354 14.781L136.006 16.389C135.99 16.477 135.946 16.553 135.874 16.617C135.802 16.673 135.722 16.701 135.634 16.701H133.57L132.31 22.557C132.294 22.645 132.25 22.721 132.178 22.785C132.106 22.841 132.026 22.869 131.938 22.869H129.946Z" fill="white"/>
<path d="M135.915 22.869C135.827 22.869 135.755 22.841 135.699 22.785C135.651 22.721 135.635 22.645 135.651 22.557L137.307 14.781C137.323 14.693 137.367 14.621 137.439 14.565C137.519 14.501 137.603 14.469 137.691 14.469H143.571C143.659 14.469 143.727 14.501 143.775 14.565C143.823 14.621 143.839 14.693 143.823 14.781L143.523 16.197C143.507 16.277 143.459 16.349 143.379 16.413C143.307 16.477 143.227 16.509 143.139 16.509H139.431L139.167 17.697H142.611C142.699 17.697 142.767 17.729 142.815 17.793C142.871 17.849 142.891 17.921 142.875 18.009L142.587 19.305C142.571 19.393 142.523 19.469 142.443 19.533C142.371 19.589 142.291 19.617 142.203 19.617H138.759L138.507 20.829H142.311C142.399 20.829 142.467 20.861 142.515 20.925C142.563 20.989 142.579 21.065 142.563 21.153L142.263 22.557C142.247 22.645 142.203 22.721 142.131 22.785C142.059 22.841 141.979 22.869 141.891 22.869H135.915Z" fill="white"/>
<path d="M147.398 15.7127C147.203 15.7127 147.048 15.6445 146.931 15.5082C146.814 15.3524 146.775 15.1674 146.814 14.9532L149.326 3.18185C149.365 2.96764 149.472 2.79239 149.647 2.65608C149.823 2.50029 150.017 2.4224 150.231 2.4224H154.467C154.681 2.4224 154.847 2.50029 154.963 2.65608C155.08 2.79239 155.119 2.96764 155.08 3.18185L152.568 14.9532C152.529 15.1674 152.412 15.3524 152.218 15.5082C152.042 15.6445 151.848 15.7127 151.634 15.7127H147.398ZM145.85 22.869C145.636 22.869 145.47 22.8008 145.354 22.6645C145.237 22.5088 145.198 22.3238 145.237 22.1096L146.171 17.7574C146.21 17.5626 146.317 17.3874 146.493 17.2316C146.687 17.0758 146.882 16.9979 147.077 16.9979H151.429C151.643 16.9979 151.799 17.0758 151.896 17.2316C152.013 17.3874 152.052 17.5626 152.013 17.7574L151.108 22.1096C151.069 22.3238 150.962 22.5088 150.786 22.6645C150.611 22.8008 150.416 22.869 150.202 22.869H145.85Z" fill="white"/>
</svg>
