<svg width="249" height="20" viewBox="0 0 249 20" fill="none" xmlns="http://www.w3.org/2000/svg">
<path d="M5.87611 19.9433C4.45004 19.9433 3.26886 19.7272 2.33255 19.2951C1.41065 18.8485 0.755241 18.1859 0.366315 17.3072C-0.0226119 16.4285 -0.101838 15.341 0.128637 14.0446C0.22947 13.4396 0.35191 12.7914 0.495957 12.0999C0.654409 11.3941 0.81286 10.7315 0.971311 10.1121C1.27381 8.85888 1.80678 7.80734 2.57023 6.95747C3.34809 6.10759 4.2988 5.46658 5.42236 5.03444C6.54593 4.6023 7.79914 4.38623 9.18199 4.38623C10.2911 4.38623 11.2491 4.51587 12.0557 4.77516C12.8768 5.03444 13.5394 5.38735 14.0436 5.8339C14.5621 6.28044 14.9223 6.78461 15.1239 7.34639C15.3256 7.89377 15.376 8.46276 15.2752 9.05335C15.2464 9.18299 15.1743 9.29823 15.0591 9.39906C14.9583 9.48549 14.843 9.5287 14.7134 9.5287H10.7377C10.5792 9.5287 10.4568 9.5071 10.3704 9.46388C10.2984 9.40626 10.2407 9.33424 10.1975 9.24781C10.1687 9.10376 10.0967 8.93811 9.98145 8.75085C9.86621 8.56359 9.68615 8.40514 9.44127 8.27549C9.19639 8.13145 8.85068 8.05942 8.40413 8.05942C7.72711 8.05942 7.15813 8.23228 6.69718 8.57799C6.25063 8.92371 5.94093 9.47108 5.76807 10.2201C5.62403 10.8251 5.47998 11.4373 5.33593 12.0567C5.20629 12.6761 5.08385 13.3027 4.96861 13.9365C4.82457 14.7576 4.911 15.3554 5.2279 15.7299C5.55921 16.09 6.05617 16.2701 6.71878 16.2701C7.17973 16.2701 7.59747 16.1981 7.97199 16.054C8.34651 15.91 8.67062 15.6867 8.94431 15.3842C9.218 15.0673 9.40526 14.664 9.50609 14.1742L9.5493 13.9581H8.01521C7.85675 13.9581 7.73431 13.9005 7.64789 13.7853C7.57586 13.6701 7.55425 13.5404 7.58306 13.3964L7.9936 11.3869C8.02241 11.2285 8.10163 11.0988 8.23128 10.998C8.37532 10.8827 8.52657 10.8251 8.68502 10.8251H14.3677C14.5261 10.8251 14.6486 10.8827 14.735 10.998C14.8214 11.0988 14.8502 11.2285 14.8214 11.3869L14.2596 14.023C14.0004 15.2906 13.4746 16.3637 12.6823 17.2424C11.8901 18.1211 10.9105 18.7909 9.74377 19.2519C8.57699 19.7128 7.28777 19.9433 5.87611 19.9433Z" fill="white"/>
<path d="M15.5199 19.7272C15.3615 19.7272 15.2318 19.6768 15.131 19.576C15.0446 19.4607 15.0158 19.3239 15.0446 19.1654L18.0264 5.16408C18.0552 5.00563 18.1344 4.87599 18.264 4.77516C18.4081 4.65992 18.5593 4.6023 18.7178 4.6023H29.3052C29.4637 4.6023 29.5861 4.65992 29.6725 4.77516C29.759 4.87599 29.7878 5.00563 29.759 5.16408L29.2188 7.71371C29.19 7.85776 29.1036 7.9874 28.9595 8.10264C28.8299 8.21788 28.6535 8.27549 28.4951 8.27549H21.9731L21.3754 10.4146H27.5767C27.7351 10.4146 27.8576 10.4722 27.944 10.5874C28.0448 10.6883 28.0808 10.8179 28.052 10.9764L27.5334 13.3099C27.5046 13.4684 27.4182 13.6052 27.2742 13.7205C27.1445 13.8213 27.0005 13.8717 26.842 13.8717H20.6408L20.1871 16.054H27.0365C27.1949 16.054 27.3174 16.1116 27.4038 16.2269C27.4902 16.3421 27.519 16.479 27.4902 16.6374L26.9501 19.1654C26.9213 19.3239 26.842 19.4607 26.7124 19.576C26.5827 19.6768 26.4387 19.7272 26.2802 19.7272H15.5199ZM22.4774 3.52195C22.2469 3.52195 22.1533 3.41391 22.1965 3.19784C22.2109 3.0826 22.2613 2.98177 22.3478 2.89534L24.9406 0.410534C25.1279 0.237678 25.2791 0.129643 25.3944 0.0864282C25.5096 0.0288093 25.6536 0 25.8265 0H29.4349C29.5645 0 29.6581 0.043214 29.7158 0.129642C29.7734 0.201665 29.795 0.295296 29.7806 0.410534C29.7662 0.525771 29.7014 0.619402 29.5861 0.691425L26.0642 3.17623C25.9201 3.27707 25.7761 3.36349 25.632 3.43552C25.5024 3.49314 25.3295 3.52195 25.1135 3.52195H22.4774Z" fill="white"/>
<path d="M29.6151 19.7272C29.4567 19.7272 29.3271 19.6768 29.2262 19.576C29.1398 19.4607 29.111 19.3239 29.1398 19.1654L32.1216 5.16408C32.1504 5.00563 32.2296 4.87599 32.3592 4.77516C32.5033 4.65992 32.6473 4.6023 32.7914 4.6023H35.6651C35.9244 4.6023 36.0973 4.65992 36.1837 4.77516C36.2845 4.89039 36.3421 4.98402 36.3565 5.05605L39.3383 12.2296L40.8292 5.16408C40.858 5.00563 40.9372 4.87599 41.0669 4.77516C41.1965 4.65992 41.3406 4.6023 41.499 4.6023H44.7617C44.9201 4.6023 45.0426 4.65992 45.129 4.77516C45.2154 4.87599 45.2442 5.00563 45.2154 5.16408L42.2337 19.1654C42.2049 19.3239 42.1256 19.4607 41.996 19.576C41.8663 19.6768 41.7223 19.7272 41.5638 19.7272H38.7117C38.438 19.7272 38.2508 19.6696 38.1499 19.5544C38.0635 19.4247 38.0059 19.3311 37.9771 19.2735L34.9521 12.4889L33.526 19.1654C33.4972 19.3239 33.418 19.4607 33.2883 19.576C33.1587 19.6768 33.0147 19.7272 32.8562 19.7272H29.6151Z" fill="white"/>
<path d="M45.3562 19.7272C45.1978 19.7272 45.0681 19.6768 44.9673 19.576C44.8809 19.4607 44.8521 19.3239 44.8809 19.1654L47.8626 5.16408C47.8914 5.00563 47.9707 4.87599 48.1003 4.77516C48.2444 4.65992 48.3956 4.6023 48.5541 4.6023H59.1415C59.3 4.6023 59.4224 4.65992 59.5088 4.77516C59.5953 4.87599 59.6241 5.00563 59.5952 5.16408L59.0551 7.71371C59.0263 7.85776 58.9398 7.9874 58.7958 8.10264C58.6662 8.21788 58.5221 8.27549 58.3637 8.27549H51.6871L51.2117 10.4146H57.4129C57.5714 10.4146 57.6938 10.4722 57.7803 10.5874C57.8811 10.6883 57.9171 10.8179 57.8883 10.9764L57.3697 13.3099C57.3409 13.4684 57.2545 13.6052 57.1104 13.7205C56.9808 13.8213 56.8368 13.8717 56.6783 13.8717H50.4771L50.0233 16.054H56.8728C57.0312 16.054 57.1537 16.1116 57.2401 16.2269C57.3265 16.3421 57.3553 16.479 57.3265 16.6374L56.7863 19.1654C56.7575 19.3239 56.6783 19.4607 56.5487 19.576C56.419 19.6768 56.275 19.7272 56.1165 19.7272H45.3562ZM52.3137 3.52195C52.0832 3.52195 51.9896 3.41391 52.0328 3.19784C52.0472 3.0826 52.0976 2.98177 52.184 2.89534L54.7769 0.410534C54.9641 0.237678 55.1154 0.129643 55.2306 0.0864282C55.3459 0.0288093 55.4899 0 55.6628 0H59.2711C59.4008 0 59.4944 0.043214 59.552 0.129642C59.6097 0.201665 59.6313 0.295296 59.6169 0.410534C59.6025 0.525771 59.5376 0.619402 59.4224 0.691425L55.9004 3.17623C55.7564 3.27707 55.6124 3.36349 55.4683 3.43552C55.3387 3.49314 55.1658 3.52195 54.9497 3.52195H52.3137Z" fill="white"/>
<path d="M59.7323 19.7272C59.5883 19.7272 59.473 19.6768 59.3866 19.576C59.3002 19.4607 59.2714 19.3239 59.3002 19.1654L62.2603 5.16408C62.2892 5.00563 62.3756 4.87599 62.5196 4.77516C62.6637 4.65992 62.8077 4.6023 62.9518 4.6023H69.1098C71.0688 4.6023 72.5093 5.04884 73.4312 5.94194C74.3675 6.83503 74.6628 8.08103 74.3171 9.67995C74.101 10.6883 73.6833 11.5454 73.0639 12.2512C72.4589 12.957 71.7458 13.5116 70.9248 13.9149L72.6317 19.0142C72.6461 19.0574 72.6533 19.1006 72.6533 19.1438C72.6677 19.1726 72.6677 19.2087 72.6533 19.2519C72.6245 19.3815 72.5525 19.4967 72.4373 19.5976C72.3364 19.684 72.2212 19.7272 72.0915 19.7272H68.4399C68.1663 19.7272 67.9718 19.6624 67.8566 19.5328C67.7557 19.3887 67.6909 19.2591 67.6621 19.1438L66.4521 14.6928H64.8964L63.9457 19.1654C63.9169 19.3239 63.8305 19.4607 63.6864 19.576C63.5568 19.6768 63.4127 19.7272 63.2543 19.7272H59.7323ZM65.6526 11.1276H67.7053C68.2095 11.1276 68.6128 10.9908 68.9153 10.7171C69.2322 10.429 69.4339 10.0761 69.5203 9.65835C69.6067 9.2262 69.5563 8.85888 69.3691 8.55639C69.1962 8.25389 68.8505 8.10264 68.3319 8.10264H66.2793L65.6526 11.1276Z" fill="white"/>
<path d="M73.3886 19.7272C73.2302 19.7272 73.115 19.6624 73.0429 19.5328C72.9709 19.3887 72.9781 19.2447 73.0645 19.1006L80.9295 5.27212C81.0159 5.11366 81.1456 4.96242 81.3184 4.81837C81.4913 4.67432 81.7146 4.6023 81.9882 4.6023H86.0504C86.3241 4.6023 86.5185 4.67432 86.6338 4.81837C86.749 4.96242 86.8138 5.11366 86.8282 5.27212L88.8377 19.1006C88.8665 19.2879 88.8161 19.4391 88.6864 19.5544C88.5712 19.6696 88.4343 19.7272 88.2759 19.7272H85.0348C84.79 19.7272 84.6171 19.6696 84.5163 19.5544C84.4298 19.4391 84.3722 19.3239 84.3434 19.2087L84.0409 17.4153H78.8552L77.7749 19.2303C77.7173 19.3455 77.6164 19.4607 77.4724 19.576C77.3427 19.6768 77.1555 19.7272 76.9106 19.7272H73.3886ZM80.6054 13.7637H83.8248L83.2631 8.9021L80.6054 13.7637Z" fill="white"/>
<path d="M92.4459 19.7272C92.3018 19.7272 92.1794 19.6768 92.0786 19.576C91.9921 19.4607 91.9633 19.3239 91.9921 19.1654L94.2609 8.62121H90.5445C90.386 8.62121 90.2564 8.57079 90.1555 8.46996C90.0691 8.35472 90.0403 8.21788 90.0691 8.05942L90.6957 5.16408C90.7245 5.00563 90.8037 4.87599 90.9334 4.77516C91.0774 4.65992 91.2215 4.6023 91.3655 4.6023H103.509C103.667 4.6023 103.79 4.65992 103.876 4.77516C103.977 4.87599 104.013 5.00563 103.984 5.16408L103.357 8.05942C103.329 8.21788 103.249 8.35472 103.12 8.46996C102.99 8.57079 102.846 8.62121 102.688 8.62121H98.9712L96.7025 19.1654C96.6737 19.3239 96.5944 19.4607 96.4648 19.576C96.3351 19.6768 96.1911 19.7272 96.0326 19.7272H92.4459Z" fill="white"/>
<path d="M103.171 19.7272C103.027 19.7272 102.905 19.6768 102.804 19.576C102.718 19.4607 102.689 19.3239 102.718 19.1654L105.721 5.16408C105.75 5.00563 105.829 4.87599 105.959 4.77516C106.088 4.65992 106.232 4.6023 106.391 4.6023H110.042C110.201 4.6023 110.323 4.65992 110.41 4.77516C110.496 4.87599 110.525 5.00563 110.496 5.16408L107.514 19.1654C107.486 19.3239 107.406 19.4607 107.277 19.576C107.147 19.6768 107.003 19.7272 106.845 19.7272H103.171Z" fill="white"/>
<path d="M116.908 19.9433C115.971 19.9433 115.1 19.8209 114.293 19.576C113.486 19.3311 112.795 18.9638 112.219 18.474C111.643 17.9843 111.225 17.3793 110.966 16.659C110.721 15.9244 110.685 15.0673 110.858 14.0878C110.958 13.4828 111.074 12.8634 111.203 12.2296C111.347 11.5814 111.491 10.9404 111.635 10.3066C112.111 8.40514 112.975 6.94306 114.228 5.92033C115.496 4.89759 117.239 4.38623 119.457 4.38623C120.394 4.38623 121.265 4.51587 122.072 4.77516C122.878 5.03444 123.563 5.41616 124.124 5.92033C124.701 6.41009 125.118 7.02949 125.378 7.77853C125.637 8.51317 125.68 9.35585 125.507 10.3066C125.406 10.9404 125.284 11.5814 125.14 12.2296C125.01 12.8634 124.866 13.4828 124.708 14.0878C124.218 16.0324 123.346 17.4945 122.093 18.474C120.84 19.4535 119.111 19.9433 116.908 19.9433ZM117.297 16.2701C117.916 16.2701 118.456 16.09 118.917 15.7299C119.392 15.3554 119.724 14.7648 119.911 13.9581C120.069 13.3387 120.213 12.7409 120.343 12.1648C120.473 11.5742 120.588 10.9764 120.689 10.3714C120.833 9.56471 120.754 8.98133 120.451 8.62121C120.163 8.24669 119.709 8.05942 119.09 8.05942C118.47 8.05942 117.93 8.24669 117.469 8.62121C117.008 8.98133 116.67 9.56471 116.454 10.3714C116.31 10.9764 116.173 11.5742 116.043 12.1648C115.928 12.7409 115.813 13.3387 115.698 13.9581C115.554 14.7648 115.626 15.3554 115.914 15.7299C116.202 16.09 116.663 16.2701 117.297 16.2701Z" fill="white"/>
<path d="M126.34 19.7272C126.182 19.7272 126.052 19.6768 125.951 19.576C125.865 19.4607 125.836 19.3239 125.865 19.1654L128.847 5.16408C128.876 5.00563 128.955 4.87599 129.084 4.77516C129.229 4.65992 129.373 4.6023 129.517 4.6023H132.39C132.65 4.6023 132.823 4.65992 132.909 4.77516C133.01 4.89039 133.067 4.98402 133.082 5.05605L136.064 12.2296L137.554 5.16408C137.583 5.00563 137.662 4.87599 137.792 4.77516C137.922 4.65992 138.066 4.6023 138.224 4.6023H141.487C141.645 4.6023 141.768 4.65992 141.854 4.77516C141.941 4.87599 141.969 5.00563 141.941 5.16408L138.959 19.1654C138.93 19.3239 138.851 19.4607 138.721 19.576C138.592 19.6768 138.448 19.7272 138.289 19.7272H135.437C135.163 19.7272 134.976 19.6696 134.875 19.5544C134.789 19.4247 134.731 19.3311 134.702 19.2735L131.677 12.4889L130.251 19.1654C130.222 19.3239 130.143 19.4607 130.014 19.576C129.884 19.6768 129.74 19.7272 129.581 19.7272H126.34Z" fill="white"/>
<path d="M147.786 19.9433C146.288 19.9433 145.049 19.7344 144.069 19.3167C143.104 18.899 142.413 18.3516 141.995 17.6746C141.577 16.9831 141.433 16.2485 141.563 15.4706C141.592 15.341 141.657 15.233 141.757 15.1465C141.858 15.0601 141.973 15.0169 142.103 15.0169H145.539C145.755 15.0169 145.913 15.0529 146.014 15.1249C146.115 15.1825 146.216 15.269 146.316 15.3842C146.403 15.5427 146.518 15.6939 146.662 15.838C146.821 15.9676 147.022 16.0756 147.267 16.1621C147.526 16.2341 147.829 16.2701 148.175 16.2701C148.837 16.2701 149.37 16.1837 149.774 16.0108C150.191 15.8236 150.436 15.5715 150.508 15.2546C150.566 15.0097 150.508 14.808 150.335 14.6496C150.177 14.4911 149.874 14.3471 149.428 14.2174C148.996 14.0878 148.405 13.9509 147.656 13.8069C146.576 13.6196 145.675 13.3171 144.955 12.8994C144.249 12.4817 143.752 11.9415 143.464 11.2789C143.176 10.6019 143.133 9.80239 143.335 8.88049C143.623 7.48324 144.365 6.38848 145.56 5.59622C146.756 4.78956 148.304 4.38623 150.206 4.38623C151.156 4.38623 152.013 4.52307 152.777 4.79676C153.54 5.07045 154.181 5.43057 154.7 5.87711C155.233 6.30925 155.622 6.77741 155.867 7.28157C156.126 7.78574 156.212 8.26829 156.126 8.72924C156.112 8.85889 156.047 8.97412 155.932 9.07495C155.831 9.16138 155.723 9.2046 155.607 9.2046H151.999C151.812 9.2046 151.661 9.17579 151.545 9.11817C151.445 9.06055 151.351 8.96692 151.264 8.83728C151.236 8.63561 151.092 8.45555 150.832 8.2971C150.587 8.13865 150.256 8.05942 149.838 8.05942C149.349 8.05942 148.945 8.14585 148.628 8.31871C148.326 8.47716 148.139 8.71484 148.067 9.03174C148.023 9.24781 148.067 9.43507 148.196 9.59352C148.326 9.75198 148.578 9.89602 148.952 10.0257C149.327 10.1409 149.86 10.2705 150.551 10.4146C151.891 10.6163 152.935 10.926 153.684 11.3437C154.448 11.7614 154.952 12.3016 155.197 12.9642C155.456 13.6124 155.492 14.3903 155.305 15.2978C154.974 16.8247 154.174 17.9843 152.907 18.7765C151.653 19.5544 149.946 19.9433 147.786 19.9433Z" fill="white"/>
<path d="M172.452 19.9433C171.531 19.9433 170.666 19.8281 169.86 19.5976C169.067 19.3527 168.383 18.9926 167.807 18.5172C167.245 18.0275 166.849 17.4081 166.619 16.659C166.402 15.91 166.402 15.0241 166.619 14.0014L168.498 5.16408C168.527 5.00563 168.606 4.87599 168.736 4.77516C168.866 4.65992 169.01 4.6023 169.168 4.6023H172.668C172.827 4.6023 172.949 4.65992 173.036 4.77516C173.137 4.87599 173.173 5.00563 173.144 5.16408L171.264 13.9365C171.106 14.6712 171.149 15.2258 171.394 15.6003C171.653 15.9748 172.136 16.1621 172.841 16.1621C173.533 16.1621 174.095 15.9748 174.527 15.6003C174.973 15.2258 175.276 14.6712 175.434 13.9365L177.314 5.16408C177.343 5.00563 177.422 4.87599 177.552 4.77516C177.681 4.65992 177.825 4.6023 177.984 4.6023H181.506C181.664 4.6023 181.787 4.65992 181.873 4.77516C181.96 4.87599 181.988 5.00563 181.96 5.16408L180.08 14.0014C179.648 16.0468 178.819 17.5521 177.595 18.5172C176.37 19.4679 174.656 19.9433 172.452 19.9433Z" fill="white"/>
<path d="M182.01 19.7272C181.852 19.7272 181.722 19.6768 181.621 19.576C181.535 19.4607 181.506 19.3239 181.535 19.1654L184.517 5.16408C184.546 5.00563 184.625 4.87599 184.754 4.77516C184.898 4.65992 185.043 4.6023 185.187 4.6023H188.06C188.32 4.6023 188.492 4.65992 188.579 4.77516C188.68 4.89039 188.737 4.98402 188.752 5.05605L191.734 12.2296L193.224 5.16408C193.253 5.00563 193.332 4.87599 193.462 4.77516C193.592 4.65992 193.736 4.6023 193.894 4.6023H197.157C197.315 4.6023 197.438 4.65992 197.524 4.77516C197.611 4.87599 197.639 5.00563 197.611 5.16408L194.629 19.1654C194.6 19.3239 194.521 19.4607 194.391 19.576C194.262 19.6768 194.117 19.7272 193.959 19.7272H191.107C190.833 19.7272 190.646 19.6696 190.545 19.5544C190.459 19.4247 190.401 19.3311 190.372 19.2735L187.347 12.4889L185.921 19.1654C185.892 19.3239 185.813 19.4607 185.684 19.576C185.554 19.6768 185.41 19.7272 185.251 19.7272H182.01Z" fill="white"/>
<path d="M197.73 19.7272C197.586 19.7272 197.463 19.6768 197.362 19.576C197.276 19.4607 197.247 19.3239 197.276 19.1654L200.279 5.16408C200.308 5.00563 200.387 4.87599 200.517 4.77516C200.647 4.65992 200.791 4.6023 200.949 4.6023H204.601C204.759 4.6023 204.882 4.65992 204.968 4.77516C205.055 4.87599 205.083 5.00563 205.055 5.16408L202.073 19.1654C202.044 19.3239 201.965 19.4607 201.835 19.576C201.705 19.6768 201.561 19.7272 201.403 19.7272H197.73Z" fill="white"/>
<path d="M205.2 19.7272C205.041 19.7272 204.912 19.6768 204.811 19.576C204.725 19.4607 204.696 19.3239 204.725 19.1654L207.706 5.16408C207.735 5.00563 207.814 4.87599 207.944 4.77516C208.088 4.65992 208.239 4.6023 208.398 4.6023H218.985C219.144 4.6023 219.266 4.65992 219.353 4.77516C219.439 4.87599 219.468 5.00563 219.439 5.16408L218.899 7.71371C218.87 7.85776 218.784 7.9874 218.639 8.10264C218.51 8.21788 218.366 8.27549 218.207 8.27549H211.531L211.055 10.4146H217.257C217.415 10.4146 217.538 10.4722 217.624 10.5874C217.725 10.6883 217.761 10.8179 217.732 10.9764L217.213 13.3099C217.185 13.4684 217.098 13.6052 216.954 13.7205C216.824 13.8213 216.68 13.8717 216.522 13.8717H210.321L209.867 16.054H216.716C216.875 16.054 216.997 16.1116 217.084 16.2269C217.17 16.3421 217.199 16.479 217.17 16.6374L216.63 19.1654C216.601 19.3239 216.522 19.4607 216.392 19.576C216.263 19.6768 216.119 19.7272 215.96 19.7272H205.2Z" fill="white"/>
<path d="M224.999 19.9433C223.501 19.9433 222.262 19.7344 221.283 19.3167C220.318 18.899 219.626 18.3516 219.209 17.6746C218.791 16.9831 218.647 16.2485 218.777 15.4706C218.805 15.341 218.87 15.233 218.971 15.1465C219.072 15.0601 219.187 15.0169 219.317 15.0169H222.752C222.968 15.0169 223.127 15.0529 223.228 15.1249C223.328 15.1825 223.429 15.269 223.53 15.3842C223.617 15.5427 223.732 15.6939 223.876 15.838C224.034 15.9676 224.236 16.0756 224.481 16.1621C224.74 16.2341 225.043 16.2701 225.388 16.2701C226.051 16.2701 226.584 16.1837 226.987 16.0108C227.405 15.8236 227.65 15.5715 227.722 15.2546C227.779 15.0097 227.722 14.808 227.549 14.6496C227.391 14.4911 227.088 14.3471 226.642 14.2174C226.209 14.0878 225.619 13.9509 224.87 13.8069C223.789 13.6196 222.889 13.3171 222.169 12.8994C221.463 12.4817 220.966 11.9415 220.678 11.2789C220.39 10.6019 220.347 9.80239 220.548 8.88049C220.836 7.48324 221.578 6.38848 222.774 5.59622C223.969 4.78956 225.518 4.38623 227.419 4.38623C228.37 4.38623 229.227 4.52307 229.991 4.79676C230.754 5.07045 231.395 5.43057 231.914 5.87711C232.447 6.30925 232.836 6.77741 233.08 7.28157C233.34 7.78574 233.426 8.26829 233.34 8.72924C233.325 8.85889 233.26 8.97412 233.145 9.07495C233.044 9.16138 232.936 9.2046 232.821 9.2046H229.213C229.025 9.2046 228.874 9.17579 228.759 9.11817C228.658 9.06055 228.565 8.96692 228.478 8.83728C228.449 8.63561 228.305 8.45555 228.046 8.2971C227.801 8.13865 227.47 8.05942 227.052 8.05942C226.562 8.05942 226.159 8.14585 225.842 8.31871C225.54 8.47716 225.352 8.71484 225.28 9.03174C225.237 9.24781 225.28 9.43507 225.41 9.59352C225.54 9.75198 225.792 9.89602 226.166 10.0257C226.541 10.1409 227.074 10.2705 227.765 10.4146C229.105 10.6163 230.149 10.926 230.898 11.3437C231.662 11.7614 232.166 12.3016 232.411 12.9642C232.67 13.6124 232.706 14.3903 232.519 15.2978C232.187 16.8247 231.388 17.9843 230.12 18.7765C228.867 19.5544 227.16 19.9433 224.999 19.9433Z" fill="white"/>
<path d="M243.142 14.0416C242.996 14.0416 242.878 13.9902 242.79 13.8875C242.702 13.7701 242.673 13.6307 242.702 13.4693L244.595 4.59853C244.624 4.43711 244.705 4.30504 244.837 4.20232C244.969 4.08492 245.116 4.02622 245.278 4.02622H248.469C248.631 4.02622 248.755 4.08492 248.843 4.20232C248.931 4.30504 248.961 4.43711 248.931 4.59853L247.038 13.4693C247.009 13.6307 246.921 13.7701 246.774 13.8875C246.642 13.9902 246.495 14.0416 246.334 14.0416H243.142ZM241.976 19.4344C241.814 19.4344 241.69 19.3831 241.602 19.2804C241.514 19.163 241.484 19.0236 241.514 18.8621L242.218 15.5824C242.247 15.4356 242.328 15.3036 242.46 15.1862C242.607 15.0688 242.753 15.0101 242.9 15.0101H246.18C246.341 15.0101 246.459 15.0688 246.532 15.1862C246.62 15.3036 246.65 15.4356 246.62 15.5824L245.938 18.8621C245.909 19.0236 245.828 19.163 245.696 19.2804C245.564 19.3831 245.417 19.4344 245.255 19.4344H241.976Z" fill="white"/>
</svg>
